<svg >
{
    
    <text 
    x="-4203.8961"  y="-503.25499999999994">CRI</text>
    
    
}
{
    
    <text 
    x="-4253.46735"  y="-633.53485">NIC</text>
    
    
}
{
    
    <text 
    x="-3611.20255"  y="-963.1892">HTI</text>
    
    
}
{
    
    <text 
    x="-4444.5062"  y="-684.26855">SLV</text>
    
    
}
{
    
    <text 
    x="-3532.6999"  y="-955.20685">DOM</text>
    
    
}
{
    
    <text 
    x="-4524.8567"  y="-749.10665">GTM</text>
    
    
}
{
    
    <text 
    x="-3898.7927499999996"  y="-1066.7012">CUB</text>
    
    
}
{
    
    <text 
    x="-4344.3802"  y="-739.74005">HND</text>
    
    
}
{
    
    <text 
    x="-4874.1301"  y="-1976.92395">USA</text>
    
    
}
{
    
    <text 
    x="-5095.535"  y="-3016.2143499999997">CAN</text>
    
    
}
{
    
    <text 
    x="-4435.6481"  y="-860.1034000000001">BLZ</text>
    
    
}
{
    
    <text 
    x="-5114.4724"  y="-1195.9994">MEX</text>
    
    
}
{
    
    <text 
    x="-4017.6053"  y="-436.099">PAN</text>
    
    
}
{
    
    <text 
    x="-1966.76255"  y="-3715.9693500000003">GRL</text>
    
    
}
{
    
    <text 
    x="-3857.3343999999997"  y="-1320.08945">BHS</text>
    
    
}
{
    
    <text 
    x="-3045.92"  y="-549.945">TTO</text>
    
    
}
{
    
    <text 
    x="-3324.05325"  y="-911.7334">PRI</text>
    
    
}
{
    
    <text 
    x="-3865.93835"  y="-906.8562">JAM</text>
    
    
}
{
    
    <text 
    x="-3615.94355"  y="1907.58855">CHL</text>
    
    
}
{
    
    <text 
    x="-3229.67165"  y="833.3007500000001">BOL</text>
    
    
}
{
    
    <text 
    x="-3208.6665500000004"  y="1675.0579500000001">ARG</text>
    
    
}
{
    
    <text 
    x="-3645.008"  y="648.8339500000001">PER</text>
    
    
}
{
    
    <text 
    x="-2795.547"  y="-207.19935">SUR</text>
    
    
}
{
    
    <text 
    x="-2947.13215"  y="-256.21585">GUY</text>
    
    
}
{
    
    <text 
    x="-2477.9725"  y="604.93435">BRA</text>
    
    
}
{
    
    <text 
    x="-2798.3471"  y="1648.0563499999998">URY</text>
    
    
}
{
    
    <text 
    x="-3909.41875"  y="62.9538">ECU</text>
    
    
}
{
    
    <text 
    x="-3658.71735"  y="-168.65555">COL</text>
    
    
}
{
    
    <text 
    x="-3007.3197"  y="1083.72545">PRY</text>
    
    
}
{
    
    <text 
    x="-3229.9690499999997"  y="-359.1238">VEN</text>
    
    
}
{
    
    <text 
    x="-2936.9301"  y="2580.44565">FLK</text>
    
    
}
{
    
    <text 
    x="5094.64745"  y="47.7202">IDN</text>
    
    
}
{
    
    <text 
    x="5691.854"  y="-126.43335">MYS</text>
    
    
}
{
    
    <text 
    x="1654.2091"  y="-1745.66645">CYP</text>
    
    
}
{
    
    <text 
    x="3967.90525"  y="-1134.3426">IND</text>
    
    
}
{
    
    <text 
    x="5316.86445"  y="-1624.9089000000001">CHN</text>
    
    
}
{
    
    <text 
    x="1742.3957500000001"  y="-1545.5574000000001">ISR</text>
    
    
}
{
    
    <text 
    x="1799.6445999999999"  y="-1706.6683999999998">LBN</text>
    
    
}
{
    
    <text 
    x="1764.56705"  y="-1602.37155">PSE</text>
    
    
}
{
    
    <text 
    x="1913.88915"  y="-1750.3318">SYR</text>
    
    
}
{
    
    <text 
    x="6406.4752"  y="-1819.2461999999998">KOR</text>
    
    
}
{
    
    <text 
    x="6322.225799999999"  y="-1994.2626">PRK</text>
    
    
}
{
    
    <text 
    x="4502.0147"  y="-1376.8342499999999">BTN</text>
    
    
}
{
    
    <text 
    x="2866.82765"  y="-1106.02135">OMN</text>
    
    
}
{
    
    <text 
    x="3200.27145"  y="-2084.68015">UZB</text>
    
    
}
{
    
    <text 
    x="3434.2774"  y="-2452.7074500000003">KAZ</text>
    
    
}
{
    
    <text 
    x="3629.3638"  y="-1909.99175">TJK</text>
    
    
}
{
    
    <text 
    x="5225.2435"  y="-632.3792">KHM</text>
    
    
}
{
    
    <text 
    x="5207.5202500000005"  y="-2299.8743999999997">MNG</text>
    
    
}
{
    
    <text 
    x="5269.3646"  y="-1085.7708">VNM</text>
    
    
}
{
    
    <text 
    x="2727.3628"  y="-1173.31425">ARE</text>
    
    
}
{
    
    <text 
    x="2186.7862"  y="-2093.5043499999997">GEO</text>
    
    
}
{
    
    <text 
    x="2360.5497"  y="-2020.11935">AZE</text>
    
    
}
{
    
    <text 
    x="1725.4134000000001"  y="-1967.2694">TUR</text>
    
    
}
{
    
    <text 
    x="5126.6956"  y="-971.59105">LAO</text>
    
    
}
{
    
    <text 
    x="3726.6318499999998"  y="-2083.427">KGZ</text>
    
    
}
{
    
    <text 
    x="2240.0282"  y="-2022.95385">ARM</text>
    
    
}
{
    
    <text 
    x="2163.0905"  y="-1654.7015">IRQ</text>
    
    
}
{
    
    <text 
    x="2746.5747499999998"  y="-1608.3112499999997">IRN</text>
    
    
}
{
    
    <text 
    x="2557.17545"  y="-1261.86915">QAT</text>
    
    
}
{
    
    <text 
    x="2234.98"  y="-1190.3454">SAU</text>
    
    
}
{
    
    <text 
    x="3427.2816"  y="-1466.41945">PAK</text>
    
    
}
{
    
    <text 
    x="5053.659900000001"  y="-772.987">THA</text>
    
    
}
{
    
    <text 
    x="2365.69995"  y="-1470.6814">KWT</text>
    
    
}
{
    
    <text 
    x="6292.73395"  y="440.18525000000005">TLS</text>
    
    
}
{
    
    <text 
    x="5727.59715"  y="-222.41490000000002">BRN</text>
    
    
}
{
    
    <text 
    x="4790.22485"  y="-1078.69275">MMR</text>
    
    
}
{
    
    <text 
    x="4484.248149999999"  y="-1210.7478">BGD</text>
    
    
}
{
    
    <text 
    x="2933.83235"  y="-1992.7623">TKM</text>
    
    
}
{
    
    <text 
    x="3324.8293"  y="-1708.2131">AFG</text>
    
    
}
{
    
    <text 
    x="1818.79955"  y="-1540.25125">JOR</text>
    
    
}
{
    
    <text 
    x="2293.71915"  y="-766.4113">YEM</text>
    
    
}
{
    
    <text 
    x="4181.9957"  y="-1414.89625">NPL</text>
    
    
}
{
    
    <text 
    x="1684.6217"  y="-1760.80355">-99</text>
    
    
}
{
    
    <text 
    x="4035.2411500000003"  y="-379.05485">LKA</text>
    
    
}
{
    
    <text 
    x="6123.25"  y="-559.9">PHL</text>
    
    
}
{
    
    <text 
    x="6043.4102"  y="-1182.6204">TWN</text>
    
    
}
{
    
    <text 
    x="6922.1085"  y="-1807.1269000000002">JPN</text>
    
    
}
{
    
    <text 
    x="1954.43"  y="-401.63975">ETH</text>
    
    
}
{
    
    <text 
    x="1519.50755"  y="-361.52385">SSD</text>
    
    
}
{
    
    <text 
    x="1895.3816"  y="-27.452149999999996">KEN</text>
    
    
}
{
    
    <text 
    x="2259.619"  y="-178.44625000000002">SOM</text>
    
    
}
{
    
    <text 
    x="1680.4041000000002"  y="669.33685">MWI</text>
    
    
}
{
    
    <text 
    x="1747.9591500000001"  y="302.5933">TZA</text>
    
    
}
{
    
    <text 
    x="2336.57975"  y="-472.19445">-99</text>
    
    
}
{
    
    <text 
    x="-631.5152"  y="-1198.3796">ESH</text>
    
    
}
{
    
    <text 
    x="-359.3648"  y="-1582.53615">MAR</text>
    
    
}
{
    
    <text 
    x="1172.94145"  y="92.90835">COD</text>
    
    
}
{
    
    <text 
    x="795.025"  y="-7.116550000000001">COG</text>
    
    
}
{
    
    <text 
    x="1183.2867"  y="1485.4388">ZAF</text>
    
    
}
{
    
    <text 
    x="855.4083"  y="1028.7649">NAM</text>
    
    
}
{
    
    <text 
    x="900.55075"  y="-1331.9471999999998">LBY</text>
    
    
}
{
    
    <text 
    x="450.39405"  y="-1684.3631500000001">TUN</text>
    
    
}
{
    
    <text 
    x="1319.7649000000001"  y="733.0402">ZMB</text>
    
    
}
{
    
    <text 
    x="-588.18385"  y="-430.87245">SLE</text>
    
    
}
{
    
    <text 
    x="-500.82009999999997"  y="-530.9258">GIN</text>
    
    
}
{
    
    <text 
    x="1045.34485"  y="-349.48405">CAF</text>
    
    
}
{
    
    <text 
    x="-473.01894999999996"  y="-322.35885">LBR</text>
    
    
}
{
    
    <text 
    x="1463.0328499999998"  y="-816.5373000000001">SDN</text>
    
    
}
{
    
    <text 
    x="2124.94125"  y="-598.81715">DJI</text>
    
    
}
{
    
    <text 
    x="1914.2783000000002"  y="-789.37005">ERI</text>
    
    
}
{
    
    <text 
    x="-278.4309"  y="-374.5695">CIV</text>
    
    
}
{
    
    <text 
    x="-101.92275"  y="-934.63565">MLI</text>
    
    
}
{
    
    <text 
    x="-738.9293"  y="-756.90625">SEN</text>
    
    
}
{
    
    <text 
    x="375.161"  y="-471.98995">NGA</text>
    
    
}
{
    
    <text 
    x="117.60090000000001"  y="-516.23875">BEN</text>
    
    
}
{
    
    <text 
    x="899.2124499999999"  y="609.1381">AGO</text>
    
    
}
{
    
    <text 
    x="1208.9608"  y="1105.1317">BWA</text>
    
    
}
{
    
    <text 
    x="932.2520499999999"  y="-757.1479499999999">TCD</text>
    
    
}
{
    
    <text 
    x="1496.2721999999999"  y="945.5819999999999">ZWE</text>
    
    
}
{
    
    <text 
    x="140.41205000000002"  y="-1369.8703">DZA</text>
    
    
}
{
    
    <text 
    x="1573.3632"  y="1326.6838">SWZ</text>
    
    
}
{
    
    <text 
    x="1891.8945"  y="697.1614999999999">MOZ</text>
    
    
}
{
    
    <text 
    x="1495.8543"  y="166.6418">BDI</text>
    
    
}
{
    
    <text 
    x="1505.1947"  y="94.8598">RWA</text>
    
    
}
{
    
    <text 
    x="1412.33195"  y="1474.0079">LSO</text>
    
    
}
{
    
    <text 
    x="1647.4277499999998"  y="-98.62944999999999">UGA</text>
    
    
}
{
    
    <text 
    x="623.6744"  y="-229.25205000000003">CMR</text>
    
    
}
{
    
    <text 
    x="475.21779999999995"  y="-872.30975">NER</text>
    
    
}
{
    
    <text 
    x="591.79695"  y="21.88695">GAB</text>
    
    
}
{
    
    <text 
    x="-68.194"  y="-633.6524">BFA</text>
    
    
}
{
    
    <text 
    x="52.90565"  y="-440.36099999999993">TGO</text>
    
    
}
{
    
    <text 
    x="-51.847049999999996"  y="-385.88195">GHA</text>
    
    
}
{
    
    <text 
    x="-726.2065"  y="-608.1856">GNB</text>
    
    
}
{
    
    <text 
    x="1472.29185"  y="-1309.30865">EGY</text>
    
    
}
{
    
    <text 
    x="-487.01495"  y="-979.3530999999999">MRT</text>
    
    
}
{
    
    <text 
    x="-749.9159"  y="-682.08605">GMB</text>
    
    
}
{
    
    <text 
    x="449.51"  y="-116.65">GNQ</text>
    
    
}
{
    
    <text 
    x="2335.21205"  y="931.4144000000001">MDG</text>
    
    
}
{
    
    <text 
    x="7195.5108"  y="284.76425">PNG</text>
    
    
}
{
    
    <text 
    x="6702.486000000001"  y="1206.4761">AUS</text>
    
    
}
{
    
    <text 
    x="8898.771349999999"  y="891.30495">FJI</text>
    
    
}
{
    
    <text 
    x="8639.35"  y="1987.95">NZL</text>
    
    
}
{
    
    <text 
    x="8254.2002"  y="1053.23485">NCL</text>
    
    
}
{
    
    <text 
    x="7958.5234"  y="401.4774">SLB</text>
    
    
}
{
    
    <text 
    x="8345.4381"  y="768.5765">VUT</text>
    
    
}
{
    
    <text 
    x="127.61375"  y="-2334.80565">-99</text>
    
    
}
{
    
    <text 
    x="1607.04325"  y="-2486.23695">UKR</text>
    
    
}
{
    
    <text 
    x="1420.88505"  y="-2691.0944">BLR</text>
    
    
}
{
    
    <text 
    x="1204.4966"  y="-2755.1851500000002">LTU</text>
    
    
}
{
    
    <text 
    x="2234.3234500000003"  y="-2912.46785">RUS</text>
    
    
}
{
    
    <text 
    x="768.87775"  y="-2494.1182000000003">CZE</text>
    
    
}
{
    
    <text 
    x="1293.3563"  y="-2936.24325">EST</text>
    
    
}
{
    
    <text 
    x="483.9174"  y="-2548.08665">DEU</text>
    
    
}
{
    
    <text 
    x="483.99875000000003"  y="-3067.8546">-99</text>
    
    
}
{
    
    <text 
    x="1272.93615"  y="-2853.3435999999997">LVA</text>
    
    
}
{
    
    <text 
    x="1363.82245"  y="-3162.61805">FIN</text>
    
    
}
{
    
    <text 
    x="950.8525000000001"  y="-3292.959">SWE</text>
    
    
}
{
    
    <text 
    x="303.881"  y="-2486.6866">LUX</text>
    
    
}
{
    
    <text 
    x="240.0224"  y="-2539.2696">BEL</text>
    
    
}
{
    
    <text 
    x="1077.79195"  y="-2077.91115">MKD</text>
    
    
}
{
    
    <text 
    x="1005.692"  y="-2032.74275">ALB</text>
    
    
}
{
    
    <text 
    x="1043.03595"  y="-2129.67935">-99</text>
    
    
}
{
    
    <text 
    x="450.90815"  y="-2798.34825">DNK</text>
    
    
}
{
    
    <text 
    x="-173.2359"  y="-2004.54765">ESP</text>
    
    
}
{
    
    <text 
    x="972.3933499999999"  y="-2354.34205">HUN</text>
    
    
}
{
    
    <text 
    x="1248.6312"  y="-2286.66185">ROU</text>
    
    
}
{
    
    <text 
    x="952.4934"  y="-2436.7021999999997">SVK</text>
    
    
}
{
    
    <text 
    x="-389.9294"  y="-2653.9363000000003">IRL</text>
    
    
}
{
    
    <text 
    x="974.5234"  y="-2599.5158">POL</text>
    
    
}
{
    
    <text 
    x="-105.8173"  y="-2720.13695">GBR</text>
    
    
}
{
    
    <text 
    x="1086.284"  y="-1974.6381499999998">GRC</text>
    
    
}
{
    
    <text 
    x="706.52575"  y="-2375.94295">AUT</text>
    
    
}
{
    
    <text 
    x="553.84535"  y="-2236.6241">ITA</text>
    
    
}
{
    
    <text 
    x="373.19825"  y="-2335.9557">CHE</text>
    
    
}
{
    
    <text 
    x="280.572"  y="-2621.11055">NLD</text>
    
    
}
{
    
    <text 
    x="1039.39945"  y="-2209.49595">SRB</text>
    
    
}
{
    
    <text 
    x="745.7656"  y="-2303.038">SVN</text>
    
    
}
{
    
    <text 
    x="818.6204999999999"  y="-2290.28995">HRV</text>
    
    
}
{
    
    <text 
    x="1257.8545"  y="-2125.4392500000004">BGR</text>
    
    
}
{
    
    <text 
    x="957.18635"  y="-2140.15505">MNE</text>
    
    
}
{
    
    <text 
    x="903.4205"  y="-2204.55255">BIH</text>
    
    
}
{
    
    <text 
    x="-413.5877"  y="-1980.3337500000002">PRT</text>
    
    
}
{
    
    <text 
    x="1424.3952"  y="-2371.74995">MDA</text>
    
    
}
{
    
    <text 
    x="-933.68555"  y="-3238.9643">ISL</text>
    
    
}</svg>