<?xml version="1.0" encoding="UTF-8" standalone="no"?>
<svg
   width="100%"
   height="100%"
   viewBox="0 0 24 24"
   version="1.1"
   xml:space="preserve"
   style="fill-rule:evenodd;clip-rule:evenodd;stroke-linecap:round;stroke-linejoin:round;stroke-miterlimit:1.5;"
   id="svg319"
   xmlns="http://www.w3.org/2000/svg"
   xmlns:svg="http://www.w3.org/2000/svg"><defs
   id="defs323" />
    <g
   transform="matrix(1,0,0,1,-12.1934,-111)"
   id="g311">
        <path
   style="color:#000000;clip-rule:nonzero;fill:#000000;fill-rule:nonzero;stroke-linecap:butt;stroke-linejoin:miter;-inkscape-stroke:none"
   d="m 30,113.5 a 0.5,0.5 0 0 0 -0.5,0.5 v 2 c 0,1.72222 1.080827,3.27518 1.6875,4.36719 0.303337,0.546 0.434383,1.00033 0.427734,1.04687 -0.0033,0.0233 0.04604,-0.0276 -0.01758,0.004 C 31.534036,121.44943 31.333333,121.5 31,121.5 h -1 a 0.50005,0.50005 0 0 0 -0.5,0.5 v 3 c 0,0.28468 -0.190583,0.69058 -0.5,1 -0.309417,0.30942 -0.715315,0.5 -1,0.5 h -4 a 0.50005,0.50005 0 0 0 -0.5,0.5 v 5 a 0.5,0.5 0 0 0 0.5,0.5 0.5,0.5 0 0 0 0.5,-0.5 v -4.5 H 28 c 0.658314,0 1.252199,-0.33814 1.707031,-0.79297 C 30.161863,126.2522 30.5,125.65831 30.5,125 v -2.5 H 31 c 0.416666,0 0.747214,-0.0432 1.039062,-0.1875 0.291849,-0.14432 0.520903,-0.45296 0.564454,-0.75781 0.0871,-0.60971 -0.219353,-1.09288 -0.541016,-1.67188 C 31.419174,118.72483 30.5,117.27778 30.5,116 v -2 A 0.5,0.5 0 0 0 30,113.5 Z"
   id="path309" />
    </g>
    <g
   transform="matrix(1,0,0,1,-11.5684,-105.706)"
   id="g317">
        <path
   d="M21.725,115.768L20.418,111.965L19.029,115.768L21.725,115.768ZM19.809,110.688L21.127,110.688L24.25,119.295L22.973,119.295L22.1,116.717L18.695,116.717L17.764,119.295L16.568,119.295L19.809,110.688Z"
   style="fill-rule:nonzero;"
   id="path313" />
        <rect
   x="25.574"
   y="110.688"
   width="1.178"
   height="8.607"
   style="fill-rule:nonzero;"
   id="rect315" />
    </g>
</svg>
