<?xml version="1.0" encoding="UTF-8" standalone="no"?>
<svg
   width="100%"
   height="100%"
   viewBox="0 0 24 24"
   version="1.1"
   xml:space="preserve"
   style="fill-rule:evenodd;clip-rule:evenodd;stroke-linecap:round;stroke-linejoin:round;stroke-miterlimit:1.5;"
   id="svg490"
   xmlns="http://www.w3.org/2000/svg"
   xmlns:svg="http://www.w3.org/2000/svg"><defs
   id="defs494" />
    <g
   transform="matrix(0.707107,0.707107,-0.707107,0.707107,49.4767,-124.436)"
   id="g444">
        <path
   style="color:#000000;clip-rule:nonzero;fill:#000000;fill-rule:nonzero;stroke-linecap:butt;stroke-linejoin:miter;-inkscape-stroke:none"
   d="m 63,115.5 a 0.50005,0.50005 0 0 0 -0.5,0.5 v 3 a 0.50005,0.50005 0 0 0 0.5,0.5 h 3 a 0.50005,0.50005 0 0 0 0.5,-0.5 v -3 A 0.50005,0.50005 0 0 0 66,115.5 Z m 0.5,1 h 2 v 2 h -2 z"
   id="rect442" />
    </g>
    <g
   transform="matrix(0.707107,0.707107,-0.707107,0.707107,56.4767,-117.436)"
   id="g448">
        <path
   style="color:#000000;clip-rule:nonzero;fill:#000000;fill-rule:nonzero;stroke-linecap:butt;stroke-linejoin:miter;-inkscape-stroke:none"
   d="m 63,115.5 a 0.50005,0.50005 0 0 0 -0.5,0.5 v 3 a 0.50005,0.50005 0 0 0 0.5,0.5 h 3 a 0.50005,0.50005 0 0 0 0.5,-0.5 v -3 A 0.50005,0.50005 0 0 0 66,115.5 Z m 0.5,1 h 2 v 2 h -2 z"
   id="rect446" />
    </g>
    <g
   transform="matrix(0.707107,0.707107,-0.707107,0.707107,42.4767,-117.436)"
   id="g452">
        <path
   style="color:#000000;clip-rule:nonzero;fill:#000000;fill-rule:nonzero;stroke-linecap:butt;stroke-linejoin:miter;-inkscape-stroke:none"
   d="m 63,115.5 a 0.50005,0.50005 0 0 0 -0.5,0.5 v 3 a 0.50005,0.50005 0 0 0 0.5,0.5 h 3 a 0.50005,0.50005 0 0 0 0.5,-0.5 v -3 A 0.50005,0.50005 0 0 0 66,115.5 Z m 0.5,1 h 2 v 2 h -2 z"
   id="rect450" />
    </g>
    <g
   transform="matrix(0.707107,0.707107,-0.707107,0.707107,49.4767,-109.951)"
   id="g456">
        <path
   style="color:#000000;clip-rule:nonzero;fill:#000000;fill-rule:nonzero;stroke-linecap:butt;stroke-linejoin:miter;-inkscape-stroke:none"
   d="m 63,115.5 a 0.50005,0.50005 0 0 0 -0.5,0.5 v 3 a 0.50005,0.50005 0 0 0 0.5,0.5 h 3 a 0.50005,0.50005 0 0 0 0.5,-0.5 v -3 A 0.50005,0.50005 0 0 0 66,115.5 Z m 0.5,1 h 2 v 2 h -2 z"
   id="rect454" />
    </g>
    <g
   transform="matrix(0.707107,0.707107,-0.707107,0.707107,49.4767,-108.951)"
   id="g460">
        <path
   style="color:#000000;clip-rule:nonzero;fill:#000000;fill-opacity:0.5;fill-rule:nonzero;stroke-linecap:butt;stroke-linejoin:miter;-inkscape-stroke:none"
   d="m 66,115.5 a 0.5,0.5 0 0 0 -0.5,0.5 v 2.5 H 63 a 0.5,0.5 0 0 0 -0.5,0.5 0.5,0.5 0 0 0 0.5,0.5 h 3 a 0.50005,0.50005 0 0 0 0.5,-0.5 v -3 A 0.5,0.5 0 0 0 66,115.5 Z"
   id="path458" />
    </g>
    <g
   transform="matrix(0.707107,0.707107,-0.707107,0.707107,49.4767,-123.436)"
   id="g464">
        <path
   style="color:#000000;clip-rule:nonzero;fill:#000000;fill-opacity:0.5;fill-rule:nonzero;stroke-linecap:butt;stroke-linejoin:miter;-inkscape-stroke:none"
   d="m 66,115.5 a 0.5,0.5 0 0 0 -0.5,0.5 v 2.5 H 63 a 0.5,0.5 0 0 0 -0.5,0.5 0.5,0.5 0 0 0 0.5,0.5 h 3 a 0.50005,0.50005 0 0 0 0.5,-0.5 v -3 A 0.5,0.5 0 0 0 66,115.5 Z"
   id="path462" />
    </g>
    <g
   transform="matrix(0.707107,0.707107,-0.707107,0.707107,42.4767,-116.493)"
   id="g468">
        <path
   style="color:#000000;clip-rule:nonzero;fill:#000000;fill-opacity:0.5;fill-rule:nonzero;stroke-linecap:butt;stroke-linejoin:miter;-inkscape-stroke:none"
   d="m 66,115.5 a 0.5,0.5 0 0 0 -0.5,0.5 v 2.5 H 63 a 0.5,0.5 0 0 0 -0.5,0.5 0.5,0.5 0 0 0 0.5,0.5 h 3 a 0.50005,0.50005 0 0 0 0.5,-0.5 v -3 A 0.5,0.5 0 0 0 66,115.5 Z"
   id="path466" />
    </g>
    <g
   transform="matrix(0.707107,0.707107,-0.707107,0.707107,56.4767,-116.436)"
   id="g472">
        <path
   style="color:#000000;clip-rule:nonzero;fill:#000000;fill-opacity:0.5;fill-rule:nonzero;stroke-linecap:butt;stroke-linejoin:miter;-inkscape-stroke:none"
   d="m 66,115.5 a 0.5,0.5 0 0 0 -0.5,0.5 v 2.5 H 63 a 0.5,0.5 0 0 0 -0.5,0.5 0.5,0.5 0 0 0 0.5,0.5 h 3 a 0.50005,0.50005 0 0 0 0.5,-0.5 v -3 A 0.5,0.5 0 0 0 66,115.5 Z"
   id="path470" />
    </g>
    <g
   transform="matrix(1,5.55112e-16,5.55112e-16,1,-54.1213,-107.864)"
   id="g476">
        <path
   style="color:#000000;clip-rule:nonzero;fill:#000000;fill-rule:nonzero;stroke-linecap:butt;stroke-linejoin:miter;-inkscape-stroke:none"
   d="m 63,114.5 a 0.5,0.5 0 0 0 -0.353516,0.14648 l -1,1 a 0.5,0.5 0 0 0 0,0.70704 0.5,0.5 0 0 0 0.707032,0 l 1,-1 a 0.5,0.5 0 0 0 0,-0.70704 A 0.5,0.5 0 0 0 63,114.5 Z"
   id="path474" />
    </g>
    <g
   transform="matrix(1,-5.55112e-16,5.55112e-16,-1,-54.1213,131.136)"
   id="g480">
        <path
   style="color:#000000;clip-rule:nonzero;fill:#000000;fill-rule:nonzero;stroke-linecap:butt;stroke-linejoin:miter;-inkscape-stroke:none"
   d="m 63,114.5 a 0.5,0.5 0 0 0 -0.353516,0.14648 l -1,1 a 0.5,0.5 0 0 0 0,0.70704 0.5,0.5 0 0 0 0.707032,0 l 1,-1 a 0.5,0.5 0 0 0 0,-0.70704 A 0.5,0.5 0 0 0 63,114.5 Z"
   id="path478" />
    </g>
    <g
   transform="matrix(-1,5.55112e-16,-5.55112e-16,1,77.8787,-107.864)"
   id="g484">
        <path
   style="color:#000000;clip-rule:nonzero;fill:#000000;fill-rule:nonzero;stroke-linecap:butt;stroke-linejoin:miter;-inkscape-stroke:none"
   d="m 63,114.5 a 0.5,0.5 0 0 0 -0.353516,0.14648 l -1,1 a 0.5,0.5 0 0 0 0,0.70704 0.5,0.5 0 0 0 0.707032,0 l 1,-1 a 0.5,0.5 0 0 0 0,-0.70704 A 0.5,0.5 0 0 0 63,114.5 Z"
   id="path482" />
    </g>
    <g
   transform="matrix(-1,-5.55112e-16,-5.55112e-16,-1,77.8787,131.136)"
   id="g488">
        <path
   style="color:#000000;clip-rule:nonzero;fill:#000000;fill-rule:nonzero;stroke-linecap:butt;stroke-linejoin:miter;-inkscape-stroke:none"
   d="m 63,114.5 a 0.5,0.5 0 0 0 -0.353516,0.14648 l -1,1 a 0.5,0.5 0 0 0 0,0.70704 0.5,0.5 0 0 0 0.707032,0 l 1,-1 a 0.5,0.5 0 0 0 0,-0.70704 A 0.5,0.5 0 0 0 63,114.5 Z"
   id="path486" />
    </g>
</svg>
