<?xml version="1.0" encoding="UTF-8" standalone="no"?>
<svg
   width="100%"
   height="100%"
   viewBox="0 0 24 24"
   version="1.1"
   xml:space="preserve"
   style="fill-rule:evenodd;clip-rule:evenodd;stroke-linecap:round;stroke-linejoin:round;stroke-miterlimit:1.5;"
   id="svg790"
   xmlns="http://www.w3.org/2000/svg"
   xmlns:svg="http://www.w3.org/2000/svg"><defs
   id="defs794" />
    <g
   transform="matrix(1,0,0,1,-118,-112)"
   id="g764">
        <path
   style="color:#000000;clip-rule:nonzero;fill:#000000;fill-rule:nonzero;stroke-linecap:butt;stroke-linejoin:miter;-inkscape-stroke:none"
   d="m 125,125.5 c -0.8225,0 -1.5,0.6775 -1.5,1.5 0,0.8225 0.6775,1.5 1.5,1.5 0.8225,0 1.5,-0.6775 1.5,-1.5 0,-0.8225 -0.6775,-1.5 -1.5,-1.5 z m 0,1 c 0.28206,0 0.5,0.21794 0.5,0.5 0,0.28206 -0.21794,0.5 -0.5,0.5 -0.28206,0 -0.5,-0.21794 -0.5,-0.5 0,-0.28206 0.21794,-0.5 0.5,-0.5 z"
   id="circle762" />
    </g>
    <g
   transform="matrix(1,0,0,1,-121,-109)"
   id="g768">
        <path
   style="color:#000000;clip-rule:nonzero;fill:#000000;fill-rule:nonzero;stroke-linecap:butt;stroke-linejoin:miter;-inkscape-stroke:none"
   d="m 131,119.5 a 0.5,0.5 0 0 0 -0.5,0.5 v 3.5 H 129 a 0.5,0.5 0 0 0 -0.5,0.5 0.5,0.5 0 0 0 0.5,0.5 h 2 a 0.50005,0.50005 0 0 0 0.5,-0.5 v -4 a 0.5,0.5 0 0 0 -0.5,-0.5 z"
   id="path766" />
    </g>
    <g
   transform="matrix(1,0,0,1,-113,-107)"
   id="g772">
        <path
   style="color:#000000;clip-rule:nonzero;fill:#000000;fill-rule:nonzero;stroke-linecap:butt;stroke-linejoin:miter;-inkscape-stroke:none"
   d="m 125,125.5 c -0.8225,0 -1.5,0.6775 -1.5,1.5 0,0.8225 0.6775,1.5 1.5,1.5 0.8225,0 1.5,-0.6775 1.5,-1.5 0,-0.8225 -0.6775,-1.5 -1.5,-1.5 z m 0,1 c 0.28206,0 0.5,0.21794 0.5,0.5 0,0.28206 -0.21794,0.5 -0.5,0.5 -0.28206,0 -0.5,-0.21794 -0.5,-0.5 0,-0.28206 0.21794,-0.5 0.5,-0.5 z"
   id="circle770" />
    </g>
    <g
   transform="matrix(1,0,0,1,-119,-109)"
   id="g776">
        <path
   style="color:#000000;clip-rule:nonzero;fill:#000000;fill-rule:nonzero;stroke-linecap:butt;stroke-linejoin:miter;-inkscape-stroke:none"
   d="m 131,119.5 a 0.5,0.5 0 0 0 -0.5,0.5 v 8 a 0.5,0.5 0 0 0 0.5,0.5 0.5,0.5 0 0 0 0.5,-0.5 v -8 a 0.5,0.5 0 0 0 -0.5,-0.5 z"
   id="path774" />
    </g>
    <g
   transform="matrix(2,0,0,1,-248,-109)"
   id="g780">
        <path
   style="color:#000000;clip-rule:nonzero;fill:#000000;fill-rule:nonzero;stroke-linecap:butt;stroke-linejoin:miter;-inkscape-stroke:none"
   d="M 131,119.68555 A 0.315,0.315 0 0 0 130.68555,120 v 6 A 0.3150315,0.3150315 0 0 0 131,126.31445 h 1.5 A 0.315,0.315 0 0 0 132.81445,126 0.315,0.315 0 0 0 132.5,125.68555 h -1.18555 V 120 A 0.315,0.315 0 0 0 131,119.68555 Z"
   id="path778" />
    </g>
    <g
   transform="matrix(1,0,0,1,-107,-110)"
   id="g784">
        <path
   style="color:#000000;clip-rule:nonzero;fill:#000000;fill-rule:nonzero;stroke-linecap:butt;stroke-linejoin:miter;-inkscape-stroke:none"
   d="m 125,125.5 c -0.8225,0 -1.5,0.6775 -1.5,1.5 0,0.8225 0.6775,1.5 1.5,1.5 0.8225,0 1.5,-0.6775 1.5,-1.5 0,-0.8225 -0.6775,-1.5 -1.5,-1.5 z m 0,1 c 0.28206,0 0.5,0.21794 0.5,0.5 0,0.28206 -0.21794,0.5 -0.5,0.5 -0.28206,0 -0.5,-0.21794 -0.5,-0.5 0,-0.28206 0.21794,-0.5 0.5,-0.5 z"
   id="circle782" />
    </g>
    <g
   transform="matrix(1,0,0,1,-128,-101)"
   id="g788">
        <path
   style="color:#000000;clip-rule:nonzero;fill:#000000;fill-rule:nonzero;stroke-linecap:butt;stroke-linejoin:miter;-inkscape-stroke:none"
   d="m 139,104.5 c -2.39816,0 -4.32788,1.90554 -4.45313,4.27344 -1.15883,0.41653 -2.04687,1.42969 -2.04687,2.72656 0,1.65053 1.34947,3 3,3 h 8 c 2.20253,0 4,-1.79747 4,-4 0,-2.20253 -1.79747,-4 -4,-4 -0.27338,0 -0.53216,0.0568 -0.79102,0.10938 C 141.90585,105.37402 140.57795,104.5 139,104.5 Z m 0,1 c 1.34604,0 2.50872,0.75709 3.0957,1.86719 a 0.50005,0.50005 0 0 0 0.57813,0.24804 c 0.26253,-0.0746 0.54022,-0.11523 0.82617,-0.11523 1.66147,0 3,1.33853 3,3 0,1.66147 -1.33853,3 -3,3 h -8 c -1.10947,0 -2,-0.89053 -2,-2 0,-0.97189 0.68906,-1.77563 1.59961,-1.96094 A 0.50005,0.50005 0 0 0 135.5,109.05078 V 109 c 0,-1.93747 1.56253,-3.5 3.5,-3.5 z"
   id="path786" />
    </g>
</svg>
