<?xml version="1.0" encoding="UTF-8" standalone="no"?>
<svg
   width="100%"
   height="100%"
   viewBox="0 0 24 24"
   version="1.1"
   xml:space="preserve"
   style="fill-rule:evenodd;clip-rule:evenodd;stroke-linecap:round;stroke-linejoin:round;stroke-miterlimit:1.5;"
   id="svg961"
   xmlns="http://www.w3.org/2000/svg"
   xmlns:svg="http://www.w3.org/2000/svg"><defs
   id="defs965" />
    <g
   transform="matrix(0.58063,0,0,0.58063,0.130388,-54.4423)"
   id="g915">
        <path
   d="M19.709,117.896L21.048,117.896L21.048,119.295L19.709,119.295L19.709,117.896ZM17.442,112.507C17.442,111.539 17.716,110.759 18.263,110.169C18.81,109.58 19.561,109.285 20.517,109.285C21.4,109.285 22.108,109.537 22.639,110.042C23.171,110.546 23.436,111.191 23.436,111.976C23.436,112.451 23.339,112.837 23.144,113.133C22.949,113.429 22.555,113.864 21.963,114.438C21.533,114.855 21.253,115.208 21.125,115.498C20.998,115.787 20.934,116.214 20.934,116.779L19.736,116.779C19.736,116.138 19.812,115.621 19.965,115.229C20.117,114.836 20.452,114.387 20.967,113.88L21.506,113.348C21.667,113.196 21.797,113.037 21.896,112.871C22.075,112.579 22.165,112.276 22.165,111.962C22.165,111.523 22.034,111.142 21.771,110.819C21.509,110.496 21.075,110.334 20.47,110.334C19.721,110.334 19.203,110.612 18.915,111.169C18.754,111.478 18.662,111.924 18.64,112.507L17.442,112.507Z"
   style="fill-rule:nonzero;"
   id="path913" />
    </g>
    <g
   transform="matrix(1,0,0,1,-141,-108)"
   id="g919">
        <path
   style="color:#000000;clip-rule:nonzero;fill:#000000;fill-rule:nonzero;stroke-linecap:butt;stroke-linejoin:miter;-inkscape-stroke:none"
   d="m 148,113.5 a 0.50005,0.50005 0 0 0 -0.5,0.5 v 12 a 0.50005,0.50005 0 0 0 0.5,0.5 h 10 a 0.50005,0.50005 0 0 0 0.5,-0.5 v -12 a 0.50005,0.50005 0 0 0 -0.5,-0.5 z m 0.5,1 h 9 v 11 h -9 z"
   id="rect917" />
    </g>
    <g
   transform="matrix(1,0,0,1,-141,-108)"
   id="g923">
        <path
   style="color:#000000;clip-rule:nonzero;fill:#000000;fill-rule:nonzero;stroke-linecap:butt;stroke-linejoin:miter"
   d="m 158,116.5 c -0.27614,0 -0.5,-0.22386 -0.5,-0.5 0,-0.27614 0.22386,-0.5 0.5,-0.5 h 2 c 0.27614,0 0.5,0.22386 0.5,0.5 0,0.27614 -0.22386,0.5 -0.5,0.5 z"
   id="path921" />
    </g>
    <g
   transform="matrix(1,0,0,1,-141,-106)"
   id="g927">
        <path
   style="color:#000000;clip-rule:nonzero;fill:#000000;fill-rule:nonzero;stroke-linecap:butt;stroke-linejoin:miter;-inkscape-stroke:none"
   d="m 158,115.5 a 0.5,0.5 0 0 0 -0.5,0.5 0.5,0.5 0 0 0 0.5,0.5 h 2 a 0.5,0.5 0 0 0 0.5,-0.5 0.5,0.5 0 0 0 -0.5,-0.5 z"
   id="path925" />
    </g>
    <g
   transform="matrix(1,0,0,1,-141,-104)"
   id="g931">
        <path
   style="color:#000000;clip-rule:nonzero;fill:#000000;fill-rule:nonzero;stroke-linecap:butt;stroke-linejoin:miter;-inkscape-stroke:none"
   d="m 158,115.5 a 0.5,0.5 0 0 0 -0.5,0.5 0.5,0.5 0 0 0 0.5,0.5 h 2 a 0.5,0.5 0 0 0 0.5,-0.5 0.5,0.5 0 0 0 -0.5,-0.5 z"
   id="path929" />
    </g>
    <g
   transform="matrix(1,0,0,1,-141,-102)"
   id="g935">
        <path
   style="color:#000000;clip-rule:nonzero;fill:#000000;fill-rule:nonzero;stroke-linecap:butt;stroke-linejoin:miter;-inkscape-stroke:none"
   d="m 158,115.5 a 0.5,0.5 0 0 0 -0.5,0.5 0.5,0.5 0 0 0 0.5,0.5 h 2 a 0.5,0.5 0 0 0 0.5,-0.5 0.5,0.5 0 0 0 -0.5,-0.5 z"
   id="path933" />
    </g>
    <g
   transform="matrix(1,0,0,1,-141,-100)"
   id="g939">
        <path
   style="color:#000000;clip-rule:nonzero;fill:#000000;fill-rule:nonzero;stroke-linecap:butt;stroke-linejoin:miter;-inkscape-stroke:none"
   d="m 158,115.5 a 0.5,0.5 0 0 0 -0.5,0.5 0.5,0.5 0 0 0 0.5,0.5 h 2 a 0.5,0.5 0 0 0 0.5,-0.5 0.5,0.5 0 0 0 -0.5,-0.5 z"
   id="path937" />
    </g>
    <g
   transform="matrix(1,0,0,1,-153,-108)"
   id="g943">
        <path
   style="color:#000000;clip-rule:nonzero;fill:#000000;fill-rule:nonzero;stroke-linecap:butt;stroke-linejoin:miter;-inkscape-stroke:none"
   d="m 158,115.5 a 0.5,0.5 0 0 0 -0.5,0.5 0.5,0.5 0 0 0 0.5,0.5 h 2 a 0.5,0.5 0 0 0 0.5,-0.5 0.5,0.5 0 0 0 -0.5,-0.5 z"
   id="path941" />
    </g>
    <g
   transform="matrix(1,0,0,1,-153,-106)"
   id="g947">
        <path
   style="color:#000000;clip-rule:nonzero;fill:#000000;fill-rule:nonzero;stroke-linecap:butt;stroke-linejoin:miter;-inkscape-stroke:none"
   d="m 158,115.5 a 0.5,0.5 0 0 0 -0.5,0.5 0.5,0.5 0 0 0 0.5,0.5 h 2 a 0.5,0.5 0 0 0 0.5,-0.5 0.5,0.5 0 0 0 -0.5,-0.5 z"
   id="path945" />
    </g>
    <g
   transform="matrix(1,0,0,1,-153,-104)"
   id="g951">
        <path
   style="color:#000000;clip-rule:nonzero;fill:#000000;fill-rule:nonzero;stroke-linecap:butt;stroke-linejoin:miter;-inkscape-stroke:none"
   d="m 158,115.5 a 0.5,0.5 0 0 0 -0.5,0.5 0.5,0.5 0 0 0 0.5,0.5 h 2 a 0.5,0.5 0 0 0 0.5,-0.5 0.5,0.5 0 0 0 -0.5,-0.5 z"
   id="path949" />
    </g>
    <g
   transform="matrix(1,0,0,1,-153,-102)"
   id="g955">
        <path
   style="color:#000000;clip-rule:nonzero;fill:#000000;fill-rule:nonzero;stroke-linecap:butt;stroke-linejoin:miter;-inkscape-stroke:none"
   d="m 158,115.5 a 0.5,0.5 0 0 0 -0.5,0.5 0.5,0.5 0 0 0 0.5,0.5 h 2 a 0.5,0.5 0 0 0 0.5,-0.5 0.5,0.5 0 0 0 -0.5,-0.5 z"
   id="path953" />
    </g>
    <g
   transform="matrix(1,0,0,1,-153,-100)"
   id="g959">
        <path
   style="color:#000000;clip-rule:nonzero;fill:#000000;fill-rule:nonzero;stroke-linecap:butt;stroke-linejoin:miter;-inkscape-stroke:none"
   d="m 158,115.5 a 0.5,0.5 0 0 0 -0.5,0.5 0.5,0.5 0 0 0 0.5,0.5 h 2 a 0.5,0.5 0 0 0 0.5,-0.5 0.5,0.5 0 0 0 -0.5,-0.5 z"
   id="path957" />
    </g>
</svg>
