<?xml version="1.0" encoding="UTF-8" standalone="no"?>
<svg
   width="100%"
   height="100%"
   viewBox="0 0 24 24"
   version="1.1"
   xml:space="preserve"
   style="fill-rule:evenodd;clip-rule:evenodd;stroke-linejoin:round;stroke-miterlimit:2;"
   id="svg186"
   xmlns="http://www.w3.org/2000/svg"
   xmlns:svg="http://www.w3.org/2000/svg"><defs
   id="defs190" />
    <g
   transform="matrix(1.50591,0,0,1.50591,6.69274,18.5649)"
   id="g184">
        <path
   d="M2.889,-1.219L4.055,-1.219L4.055,0L2.889,0L2.889,-1.219ZM0.914,-5.912C0.914,-6.756 1.152,-7.435 1.629,-7.948C2.105,-8.462 2.76,-8.719 3.592,-8.719C4.361,-8.719 4.978,-8.499 5.44,-8.06C5.903,-7.62 6.135,-7.059 6.135,-6.375C6.135,-5.961 6.05,-5.625 5.88,-5.367C5.71,-5.109 5.367,-4.73 4.852,-4.23C4.477,-3.867 4.233,-3.56 4.122,-3.308C4.011,-3.056 3.955,-2.684 3.955,-2.191L2.912,-2.191C2.912,-2.75 2.979,-3.2 3.111,-3.542C3.244,-3.884 3.535,-4.275 3.984,-4.717L4.453,-5.18C4.594,-5.313 4.707,-5.451 4.793,-5.596C4.949,-5.85 5.027,-6.113 5.027,-6.387C5.027,-6.77 4.913,-7.102 4.685,-7.383C4.456,-7.664 4.078,-7.805 3.551,-7.805C2.898,-7.805 2.447,-7.563 2.197,-7.078C2.057,-6.809 1.977,-6.42 1.957,-5.912L0.914,-5.912Z"
   style="fill-rule:nonzero;"
   id="path2078" />
    </g>
</svg>
